<?xml version="1.0" encoding="utf-8"?>

<!-- Uploaded to: SVG Repo, www.svgrepo.com, Generator: SVG Repo Mixer Tools -->
<svg fill="#000000" height="800px" width="800px" version="1.1" id="Icons" xmlns="http://www.w3.org/2000/svg" xmlns:xlink="http://www.w3.org/1999/xlink" 
	 viewBox="0 0 32 32" xml:space="preserve">
<g>
	<path d="M15,8C8.9,8,4,12.9,4,19s4.9,11,11,11s11-4.9,11-11S21.1,8,15,8z M7,19c0-4.4,3.6-8,8-8c1.1,0,2.1,0.2,3,0.6V15h-2
		c-0.6,0-1,0.4-1,1s0.4,1,1,1h2v1h-2c-0.6,0-1,0.4-1,1s0.4,1,1,1h2v1h-2c-0.6,0-1,0.4-1,1s0.4,1,1,1h2v3.4c-0.9,0.4-1.9,0.6-3,0.6
		C10.6,27,7,23.4,7,19z M20,25.2V12.8c1.8,1.5,3,3.7,3,6.2S21.8,23.8,20,25.2z"/>
	<path d="M4.8,27H2.5C1.7,27,1,27.7,1,28.5S1.7,30,2.5,30h5.6C6.8,29.2,5.7,28.2,4.8,27z"/>
	<path d="M30,1.7C29.8,1.3,29.5,1,29,1H17c-0.5,0-0.8,0.3-1,0.7c-0.1,0.4,0.1,0.9,0.5,1.1c1.7,0.9,2.7,2.3,3.2,4
		c2.6,1,4.8,2.9,6.3,5.2V9c0-2.7,1.2-4.8,3.5-6.1C29.9,2.6,30.1,2.2,30,1.7z"/>
</g>
</svg>