<?xml version="1.0" encoding="utf-8"?>

<!-- Uploaded to: SVG Repo, www.svgrepo.com, Generator: SVG Repo Mixer Tools -->
<svg fill="#000000" height="800px" width="800px" version="1.1" id="Icons" xmlns="http://www.w3.org/2000/svg" xmlns:xlink="http://www.w3.org/1999/xlink" 
	 viewBox="0 0 32 32" xml:space="preserve">
<g>
	<path d="M29,24H3c-0.6,0-1-0.4-1-1v-6c0-0.6,0.4-1,1-1h23c0.6,0,1,0.4,1,1c0,1.1,0.9,2,2,2c0.6,0,1,0.4,1,1v3
		C30,23.6,29.6,24,29,24z"/>
</g>
<g>
	<path d="M19,18c-0.6,0-1-0.4-1-1V7c0-0.6,0.4-1,1-1s1,0.4,1,1v10C20,17.6,19.6,18,19,18z"/>
</g>
<path d="M24.9,3.6C24.7,3.2,24.4,3,24,3h-7.6c-1.2,0-2.3,0.5-3.1,1.3C12.8,4.7,12.2,5,11.6,5H9.5C5.9,5,3,7.9,3,11.5S5.9,18,9.5,18
	H14c0.3,0,0.6-0.1,0.8-0.4l5.2-6.8V8c0-0.6,0.4-1,1-1s1,0.4,1,1v0.2l2.8-3.6C25,4.3,25.1,3.9,24.9,3.6z"/>
<g>
	<path d="M6,29c-0.6,0-1-0.4-1-1v-5c0-0.6,0.4-1,1-1s1,0.4,1,1v5C7,28.6,6.6,29,6,29z"/>
</g>
<g>
	<path d="M24,29c-0.6,0-1-0.4-1-1v-5c0-0.6,0.4-1,1-1s1,0.4,1,1v5C25,28.6,24.6,29,24,29z"/>
</g>
</svg>