<?xml version="1.0" encoding="utf-8"?>

<!-- Uploaded to: SVG Repo, www.svgrepo.com, Generator: SVG Repo Mixer Tools -->
<svg fill="#000000" height="800px" width="800px" version="1.1" id="Icons" xmlns="http://www.w3.org/2000/svg" xmlns:xlink="http://www.w3.org/1999/xlink" 
	 viewBox="0 0 32 32" xml:space="preserve">
<g>
	<path d="M16,9c-1.7,0-3-1.3-3-3s1.3-3,3-3s3,1.3,3,3S17.7,9,16,9z"/>
</g>
<g>
	<path d="M27,27H8.8c-0.6,0-1-0.4-1-1s0.4-1,1-1h16.4L16,9.9L7.9,23.7C7.6,24.2,7,24.3,6.5,24c-0.5-0.3-0.6-0.9-0.3-1.4l9-15.2
		C15.3,7.2,15.6,7,16,7c0.3,0,0.7,0.2,0.9,0.5l11,18c0.2,0.3,0.2,0.7,0,1C27.7,26.8,27.4,27,27,27z"/>
</g>
<g>
	<path d="M23,30c-0.3,0-0.6-0.1-0.8-0.4l-6-8c-0.3-0.4-0.2-1.1,0.2-1.4c0.4-0.3,1.1-0.2,1.4,0.2l6,8c0.3,0.4,0.2,1.1-0.2,1.4
		C23.4,29.9,23.2,30,23,30z"/>
</g>
</svg>