<?xml version="1.0" encoding="utf-8"?>

<!-- Uploaded to: SVG Repo, www.svgrepo.com, Generator: SVG Repo Mixer Tools -->
<svg fill="#000000" height="800px" width="800px" version="1.1" id="Icons" xmlns="http://www.w3.org/2000/svg" xmlns:xlink="http://www.w3.org/1999/xlink" 
	 viewBox="0 0 32 32" xml:space="preserve">
<g>
	<path d="M26.1,11.1c-0.3,0-0.5-0.1-0.7-0.3l-4.2-4.2c-0.4-0.4-0.4-1,0-1.4c1.6-1.6,3.4-2.6,5-2.8c0.3,0,0.6,0.1,0.8,0.3l2.3,2.3
		c0.2,0.2,0.3,0.5,0.3,0.8c-0.2,1.6-1.3,3.4-2.8,5C26.6,11,26.3,11.1,26.1,11.1z"/>
</g>
<g>
	<path d="M10.1,29.9c-0.3,0-0.5-0.1-0.7-0.3l-7-7c-0.2-0.2-0.3-0.4-0.3-0.7s0.1-0.5,0.3-0.7l0.7-0.7c1.9-1.9,5.1-1.9,7.1,0l1.3,1.3
		c1.9,1.9,1.9,5.1,0,7.1l-0.7,0.7C10.6,29.8,10.3,29.9,10.1,29.9z"/>
</g>
<path d="M24.7,11.4l-4.2-4.2c-0.4-0.4-1-0.4-1.4,0L9.4,17c-0.4,0.4-0.4,1,0,1.4l4.2,4.2c0.2,0.2,0.5,0.3,0.7,0.3s0.5-0.1,0.7-0.3
	l9.8-9.8C25.1,12.5,25.1,11.8,24.7,11.4z M15.9,17.4c-0.1,0.1-0.1,0.2-0.2,0.3C15.5,17.9,15.2,18,15,18c-0.1,0-0.3,0-0.4-0.1
	c-0.1,0-0.2-0.1-0.3-0.2c-0.1-0.1-0.2-0.2-0.2-0.3c0-0.1-0.1-0.3-0.1-0.4s0-0.3,0.1-0.4c0-0.1,0.1-0.2,0.2-0.3
	c0.3-0.3,0.7-0.4,1.1-0.2c0.1,0,0.2,0.1,0.3,0.2c0.1,0.1,0.2,0.2,0.2,0.3c0,0.1,0.1,0.3,0.1,0.4S15.9,17.3,15.9,17.4z M18,15.3
	c0,0.1-0.1,0.2-0.2,0.3c-0.1,0.1-0.2,0.2-0.3,0.2s-0.3,0.1-0.4,0.1c-0.1,0-0.3,0-0.4-0.1c-0.1,0-0.2-0.1-0.3-0.2
	c-0.2-0.2-0.3-0.4-0.3-0.7c0-0.1,0-0.3,0.1-0.4c0.1-0.1,0.1-0.2,0.2-0.3c0.2-0.2,0.6-0.3,0.9-0.3c0.1,0,0.1,0,0.2,0.1
	c0.1,0,0.1,0,0.2,0.1c0.1,0,0.1,0.1,0.2,0.1c0.1,0.1,0.2,0.2,0.2,0.3c0,0.1,0.1,0.3,0.1,0.4S18,15.2,18,15.3z M20,13.2
	c0,0.1-0.1,0.2-0.2,0.3c-0.1,0.1-0.2,0.2-0.3,0.2s-0.3,0.1-0.4,0.1c-0.1,0-0.3,0-0.4-0.1c-0.1,0-0.2-0.1-0.3-0.2
	c-0.1-0.1-0.2-0.2-0.2-0.3c-0.1-0.1-0.1-0.3-0.1-0.4c0-0.3,0.1-0.5,0.3-0.7c0.2-0.2,0.6-0.3,0.9-0.3c0.1,0,0.1,0,0.2,0.1
	c0.1,0,0.1,0,0.2,0.1c0,0,0.1,0.1,0.2,0.1c0.2,0.2,0.3,0.5,0.3,0.7C20.1,13,20.1,13.1,20,13.2z"/>
</svg>