<?xml version="1.0" encoding="utf-8"?>

<!-- Uploaded to: SVG Repo, www.svgrepo.com, Generator: SVG Repo Mixer Tools -->
<svg fill="#000000" height="800px" width="800px" version="1.1" id="Icons" xmlns="http://www.w3.org/2000/svg" xmlns:xlink="http://www.w3.org/1999/xlink" 
	 viewBox="0 0 32 32" xml:space="preserve">
<path d="M28,8h-5c-0.6,0-1,0.4-1,1v5l-7.4-5.7c-0.3-0.2-0.7-0.3-1.1-0.1C13.2,8.3,13,8.6,13,9v5L5.6,8.2C5.3,8,4.9,7.9,4.6,8.1
	C4.2,8.3,4,8.6,4,9v14c0,0.4,0.2,0.7,0.6,0.9C4.7,24,4.9,24,5,24c0.2,0,0.4-0.1,0.6-0.2L13,18v5c0,0.4,0.2,0.7,0.6,0.9
	C13.7,24,13.9,24,14,24c0.2,0,0.4-0.1,0.6-0.2L22,18v5c0,0.6,0.4,1,1,1h5c0.6,0,1-0.4,1-1V9C29,8.4,28.6,8,28,8z"/>
</svg>