<?xml version="1.0" encoding="utf-8"?>

<!-- Uploaded to: SVG Repo, www.svgrepo.com, Generator: SVG Repo Mixer Tools -->
<svg fill="#000000" height="800px" width="800px" version="1.1" id="Icons" xmlns="http://www.w3.org/2000/svg" xmlns:xlink="http://www.w3.org/1999/xlink" 
	 viewBox="0 0 32 32" xml:space="preserve">
<g>
	<path d="M9,17h14c0.4,0,0.7-0.2,0.9-0.6c0.2-0.3,0.1-0.8-0.1-1.1l-7-9c-0.4-0.5-1.2-0.5-1.6,0l-7,9c-0.2,0.3-0.3,0.7-0.1,1.1
		C8.3,16.8,8.6,17,9,17z"/>
	<path d="M23,19H9c-0.6,0-1,0.4-1,1v5c0,0.6,0.4,1,1,1h14c0.6,0,1-0.4,1-1v-5C24,19.4,23.6,19,23,19z"/>
</g>
</svg>