<?xml version="1.0" encoding="utf-8"?>

<!-- Uploaded to: SVG Repo, www.svgrepo.com, Generator: SVG Repo Mixer Tools -->
<svg fill="#000000" height="800px" width="800px" version="1.1" id="Icons" xmlns="http://www.w3.org/2000/svg" xmlns:xlink="http://www.w3.org/1999/xlink" 
	 viewBox="0 0 32 32" xml:space="preserve">
<path d="M29,10h-2c0-0.6-0.4-1-1-1s-1,0.4-1,1h-1c0-0.6-0.4-1-1-1s-1,0.4-1,1h-0.4l-1.7-3.4C19.7,6.2,19.4,6,19,6h-6
	c-0.4,0-0.7,0.2-0.9,0.6L10.4,10H3c-0.6,0-1,0.4-1,1v14c0,0.6,0.4,1,1,1h26c0.6,0,1-0.4,1-1V11C30,10.4,29.6,10,29,10z M13.6,8h4.8
	l1,2h-6.8L13.6,8z M9,22c-2.2,0-4-1.8-4-4s1.8-4,4-4s4,1.8,4,4S11.2,22,9,22z M17,19h-2c-0.6,0-1-0.4-1-1s0.4-1,1-1h2
	c0.6,0,1,0.4,1,1S17.6,19,17,19z M23,22c-2.2,0-4-1.8-4-4s1.8-4,4-4s4,1.8,4,4S25.2,22,23,22z"/>
</svg>