<?xml version="1.0" encoding="utf-8"?>

<!-- Uploaded to: SVG Repo, www.svgrepo.com, Generator: SVG Repo Mixer Tools -->
<svg fill="#000000" height="800px" width="800px" version="1.1" id="Icons" xmlns="http://www.w3.org/2000/svg" xmlns:xlink="http://www.w3.org/1999/xlink" 
	 viewBox="0 0 32 32" xml:space="preserve">
<g>
	<path d="M28.1,23c1.2-2.1,1.9-4.6,1.9-7s-0.7-4.9-1.9-7l0.6-0.6c0.7-0.7,1-1.6,1-2.5c0-1-0.4-1.9-1-2.5c-1.4-1.4-3.7-1.4-5.1,0
		L23,3.9c-4.3-2.5-9.8-2.5-14.1,0L8.3,3.3C7,1.9,4.7,1.9,3.3,3.3c-0.7,0.7-1,1.6-1,2.5c0,1,0.4,1.9,1,2.5L3.9,9
		C2.7,11.1,2,13.5,2,16s0.7,4.9,1.9,7l-0.6,0.6c-0.7,0.7-1,1.6-1,2.5c0,1,0.4,1.9,1,2.5c1.4,1.4,3.7,1.4,5.1,0L9,28.1
		c2.1,1.2,4.6,1.9,7,1.9s4.9-0.7,7-1.9l0.6,0.6c1.4,1.4,3.7,1.4,5.1,0c0.7-0.7,1-1.6,1-2.5c0-1-0.4-1.9-1-2.5L28.1,23z M16,26
		c-5.5,0-10-4.5-10-10S10.5,6,16,6s10,4.5,10,10S21.5,26,16,26z"/>
	<circle cx="16" cy="16" r="4"/>
</g>
</svg>